<svg xmlns="http://www.w3.org/2000/svg" xmlns:xlink="http://www.w3.org/1999/xlink" version="1.1" width="1000" height="1000" viewBox="0 0 1000 1000" xml:space="preserve">
<desc>Created with Fabric.js 3.5.0</desc>
<defs>
</defs>
<rect x="0" y="0" width="100%" height="100%" fill="rgba(255,255,255,0)"/>
<g transform="matrix(16.088 0 0 16.088 499.9998 499.9997)" id="569443">
<g style="" vector-effect="non-scaling-stroke">
		<g transform="matrix(1 0 0 1 -0.0001 -0.0001)" id="Layer_1">
<path style="stroke: none; stroke-width: 1; stroke-dasharray: none; stroke-linecap: butt; stroke-dashoffset: 0; stroke-linejoin: miter; stroke-miterlimit: 4; is-custom-font: none; font-file-url: none; fill: rgb(184,39,42); fill-rule: nonzero; opacity: 1;" transform=" translate(-78.8638, -114.1335)" d="M 78.98064 131.04719 l -0.03421 -0.083 a 5.7389 5.7389 0 0 1 -2.07663 -0.54148 q -0.82336 -0.37944 -1.64929 -0.75327 q -0.66146 -0.30064 -1.32231 -0.6028 a 19.971 19.971 0 0 1 -2.96645 -1.58374 a 5.17433 5.17433 0 0 1 -2.11615 -2.464 a 0.4685 0.4685 0 0 0 -0.4717 -0.34742 c -0.06888 -0.005 -0.13791 -0.00878 -0.20709 -0.01271 a 4.68616 4.68616 0 0 1 -0.63125 -0.064 a 6.15434 6.15434 0 0 1 -3.51642 -2.0839 a 3.23934 3.23934 0 0 1 -0.82593 -2.132 c -0.01484 -0.901 -0.03043 -1.83276 -0.06237 -2.75921 a 10.26422 10.26422 0 0 0 -0.493 -3.18974 a 2.03689 2.03689 0 0 1 -0.10626 -0.66653 c -0.03149 -1.36969 0.03118 -2.703 0.09658 -3.82659 a 15.11931 15.11931 0 0 1 0.31789 -2.51791 a 1.17786 1.17786 0 0 1 0.31987 -0.58872 a 22.39661 22.39661 0 0 1 4.89791 -3.72 a 0.23358 0.23358 0 0 0 0.13746 -0.20845 A 9.82159 9.82159 0 0 1 70.49941 98.163 a 0.83909 0.83909 0 0 1 0.6753 -0.31185 a 14.822 14.822 0 0 1 1.621 0.09174 a 8.33737 8.33737 0 0 1 3.07922 0.81337 a 7.7774 7.7774 0 0 1 2.642 -1.17487 A 11.84288 11.84288 0 0 1 81.4704 97.22 c 0.2911 0 0.59144 0.00954 0.89269 0.02861 a 0.8888 0.8888 0 0 1 0.79 0.47624 a 9.8976 9.8976 0 0 0 0.88452 1.34184 a 5.09345 5.09345 0 0 0 1.89256 1.69122 a 4.14031 4.14031 0 0 1 0.8285 0.4988 a 9.91712 9.91712 0 0 1 2.17185 2.28388 a 5.62679 5.62679 0 0 0 2.09541 1.9092 a 11.06629 11.06629 0 0 1 1.58556 0.98988 a 4.779 4.779 0 0 1 1.93555 2.58845 a 3.50525 3.50525 0 0 1 -0.31472 2.90727 a 6.00638 6.00638 0 0 0 -0.65109 1.66321 a 1.09242 1.09242 0 0 0 0.21118 1.02787 a 6.87841 6.87841 0 0 1 1.36 2.65174 l 0.082 0.02149 v 1.18349 l -0.08689 0.01817 a 2.55162 2.55162 0 0 1 -0.78673 1.249 a 28.238 28.238 0 0 0 -2.60359 2.7091 a 2.7712 2.7712 0 0 1 -1.0801 0.77991 a 5.28268 5.28268 0 0 1 -2.04257 0.41978 a 3.38015 3.38015 0 0 1 -0.05208 0.52272 a 5.05112 5.05112 0 0 1 -1.46778 3.00036 a 17.006 17.006 0 0 1 -4.019 2.81855 a 8.03216 8.03216 0 0 1 -3.39985 0.96036 l -0.00924 0.00015 l -0.05979 0.08583 Z M 71.078 124.88843 a 7.58622 7.58622 0 0 0 2.73681 2.57438 a 13.20754 13.20754 0 0 0 6.69207 1.58949 q 0.14646 0 0.29323 -0.00212 a 0.38031 0.38031 0 0 0 0.13487 -0.04557 a 15.32788 15.32788 0 0 0 2.33989 -1.35818 a 11.79056 11.79056 0 0 0 2.06165 -1.80612 a 12.107 12.107 0 0 1 -1.23314 0.79656 a 7.38564 7.38564 0 0 1 -3.54109 1.01456 l -0.08372 0.0006 a 4.68808 4.68808 0 0 1 -3.24075 -1.25691 c -0.07221 -0.06555 -0.10415 -0.06555 -0.13215 -0.06555 a 0.35068 0.35068 0 0 0 -0.05934 0.00591 a 10.44122 10.44122 0 0 1 -1.79538 0.15895 q -0.20163 0 -0.40358 -0.00833 a 5.49717 5.49717 0 0 1 -3.30387 -1.21392 C 71.3927 125.15047 71.23844 125.02331 71.078 124.88843 Z m 7.53678 0.08583 a 9.28807 9.28807 0 0 0 2.04348 0.64852 a 2.50254 2.50254 0 0 0 0.41917 0.03784 a 1.65836 1.65836 0 0 0 1.28462 -0.57827 a 4.97892 4.97892 0 0 1 0.55269 -0.4991 l 0.04693 -0.0383 a 13.48921 13.48921 0 0 1 3.73031 -2.07558 a 5.87909 5.87909 0 0 0 2.32793 -1.553 a 3.935 3.935 0 0 0 1.07359 -2.76617 a 3.61663 3.61663 0 0 0 -0.18363 -0.93523 c -0.04586 -0.15956 -0.09158 -0.31926 -0.12806 -0.48109 c -0.21572 -0.957 -0.42508 -1.91541 -0.63444 -2.87365 l -0.29156 -1.3317 a 5.59994 5.59994 0 0 0 -1.26917 -2.71909 a 1.81737 1.81737 0 0 0 -1.01243 -0.607 a 5.16617 5.16617 0 0 1 0.61748 1.292 a 15.2939 15.2939 0 0 1 0.7463 4.31373 a 6.39058 6.39058 0 0 1 -0.51393 3.09543 a 14.002 14.002 0 0 1 -4.63572 5.53583 a 4.16848 4.16848 0 0 1 -2.4504 0.81972 L 80.302 124.259 l -0.02134 -0.31018 v 0.31 A 2.35251 2.35251 0 0 0 78.61476 124.97426 Z m -8.55239 -16.64745 a 4.2009 4.2009 0 0 0 -1.3815 1.14489 a 7.96 7.96 0 0 0 -1.95432 4.98 a 2.81855 2.81855 0 0 0 0.63792 2.22877 a 21.40317 21.40317 0 0 1 2.58164 3.63843 l 0.22556 0.36982 a 10.83956 10.83956 0 0 0 1.79446 2.31264 a 5.07967 5.07967 0 0 0 2.33277 1.40421 a 3.3777 3.3777 0 0 0 0.72557 0.0831 a 2.74971 2.74971 0 0 0 0.72784 -0.096 a 6.35645 6.35645 0 0 1 -3.84492 -2.68852 a 7.85111 7.85111 0 0 1 -1.12748 -4.95256 a 0.20976 0.20976 0 0 0 -0.12367 -0.24629 a 4.06244 4.06244 0 0 1 -1.8856 -3.32189 a 7.85411 7.85411 0 0 1 0.54452 -3.18808 A 12.92058 12.92058 0 0 1 70.06237 108.32681 Z m 2.8782 10.09965 c 0.02422 0.17439 0.05555 0.35392 0.094 0.54012 a 5.06846 5.06846 0 0 0 1.23057 2.54788 a 4.11442 4.11442 0 0 0 3.15068 1.22619 a 9.88032 9.88032 0 0 0 4.20111 -1.00229 a 7.78826 7.78826 0 0 0 4.397 -8.08024 a 8.79852 8.79852 0 0 0 -2.59618 -5.017 a 1.88325 1.88325 0 0 0 -0.86619 -0.5312 a 10.44179 10.44179 0 0 1 1.707 5.93139 a 6.33543 6.33543 0 0 1 -2.164 4.57032 a 6.72725 6.72725 0 0 1 -4.60151 1.78432 a 8.09158 8.09158 0 0 1 -1.01667 -0.066 a 5.25766 5.25766 0 0 1 -2.90242 -1.22875 A 4.85421 4.85421 0 0 1 72.94057 118.42646 Z m -7.95686 -0.44234 a 15.08533 15.08533 0 0 1 0.30034 2.944 a 1.06477 1.06477 0 0 0 0.58508 1.01576 a 7.18934 7.18934 0 0 0 2.55712 0.76235 a 5.181 5.181 0 0 0 -1.04452 -3.26558 a 2.16532 2.16532 0 0 0 -1.13793 -0.80156 a 3.13352 3.13352 0 0 1 -0.61021 -0.25553 A 6.5889 6.5889 0 0 1 64.98371 117.98412 Z M 92.391 116.02768 a 23.17283 23.17283 0 0 0 -0.5315 3.30736 a 7.72381 7.72381 0 0 0 1.17789 -1.22209 a 0.70446 0.70446 0 0 0 0.11611 -0.50743 A 2.81357 2.81357 0 0 0 92.391 116.02768 Z m -17.18046 1.62038 a 6.34775 6.34775 0 0 0 0.66849 0.47215 a 3.65942 3.65942 0 0 0 1.89256 0.57918 a 3.584 3.584 0 0 0 2.01321 -0.67879 a 7.71287 7.71287 0 0 0 2.57089 -3.07832 a 2.41087 2.41087 0 0 0 0.2192 -0.8453 a 4.51126 4.51126 0 0 0 -0.49729 -2.40075 a 4.065 4.065 0 0 0 -2.70274 -2.36229 a 3.56378 3.56378 0 0 0 -0.90738 -0.11762 a 4.89779 4.89779 0 0 0 -2.213 0.601 a 2.67921 2.67921 0 0 0 -1.63112 2.39832 a 2.8641 2.8641 0 0 0 0.018 0.484 l 0.03043 -0.05934 a 3.12981 3.12981 0 0 1 1.92041 -1.71423 a 3.01915 3.01915 0 0 1 3.18323 0.96217 a 2.62569 2.62569 0 0 1 0.78022 2.43344 a 4.39423 4.39423 0 0 1 -1.04362 2.01866 a 0.93157 0.93157 0 0 1 -0.67031 0.3014 a 7.96737 7.96737 0 0 0 -1.22634 0.18529 A 10.733 10.733 0 0 0 75.21052 117.64806 Z m 1.07888 -11.10375 a 3.91563 3.91563 0 0 0 -1.67366 0.38465 a 7.73453 7.73453 0 0 0 -4.10044 4.57987 a 2.70152 2.70152 0 0 0 -0.04556 1.771 a 3.62883 3.62883 0 0 0 3.14583 2.613 a 2.77439 2.77439 0 0 0 0.43689 0.04254 l 0.022 -0.00015 a 4.54009 4.54009 0 0 1 -1.53061 -3.24635 a 5.77017 5.77017 0 0 1 0.8833 -3.18278 a 4.412 4.412 0 0 1 4.01461 -2.33035 a 6.517 6.517 0 0 1 0.91721 0.06767 c 0.1638 0.02331 0.32714 0.05268 0.49154 0.08871 q -0.186 -0.1099 -0.38617 -0.21193 A 4.80524 4.80524 0 0 0 76.2894 106.54431 Z m 1.31792 6.34435 a 1.17829 1.17829 0 0 0 0.00106 2.35578 h 0.00045 a 1.17784 1.17784 0 0 0 0.01378 -2.35563 l -0.01529 -0.31018 Z m -8.96369 -7.69331 c -0.09658 0.05087 -0.19013 0.10567 -0.28035 0.16 a 27.24631 27.24631 0 0 0 -3.44709 2.61313 a 0.2005 0.2005 0 0 0 -0.05237 0.0825 a 7.18041 7.18041 0 0 0 -0.45838 1.85956 a 10.2043 10.2043 0 0 0 0.46307 4.1065 c 0.03754 0.12216 0.07614 0.24584 0.11717 0.37027 a 10.54911 10.54911 0 0 1 0.14487 -1.452 a 9.4881 9.4881 0 0 1 2.95328 -5.59108 a 0.71194 0.71194 0 0 0 0.26158 -0.55738 A 4.58222 4.58222 0 0 1 68.64363 105.19535 Z m 21.445 1.807 a 2.9052 2.9052 0 0 0 -0.16333 2.85579 a 14.93046 14.93046 0 0 1 1.2018 3.3997 q 0.07994 0.34878 0.15759 0.69817 c 0.45036 -0.79126 0.83365 -1.63339 1.21665 -2.49626 a 2.11148 2.11148 0 0 0 -0.11672 -2.01472 A 8.37494 8.37494 0 0 0 90.08863 107.00238 Z m -4.19944 0.31381 a 5.436 5.436 0 0 1 2.4731 0.73753 a 5.42581 5.42581 0 0 0 -0.4001 -2.63114 a 4.67915 4.67915 0 0 0 -2.18547 -2.20425 a 9.65252 9.65252 0 0 1 -3.83053 -3.77013 a 0.32272 0.32272 0 0 0 -0.329 -0.18983 h -0.033 c -0.15426 0 -0.30852 -0.00258 -0.46293 -0.00515 c -0.15077 -0.00257 -0.30155 -0.00515 -0.45217 -0.00515 c -0.126 0 -0.25174 0.00182 -0.37754 0.007 a 5.98022 5.98022 0 0 0 -2.34292 0.47336 a 1.7779 1.7779 0 0 0 -1.07434 1.11976 a 0.22092 0.22092 0 0 0 -0.01045 0.058 l 0.02649 0.0162 a 12.05411 12.05411 0 0 0 2.93179 1.27432 c 0.2799 0.07069 0.56177 0.13382 0.84364 0.197 c 0.52226 0.11686 1.06239 0.23766 1.58768 0.40812 a 8.91428 8.91428 0 0 1 2.71379 1.24873 a 2.58167 2.58167 0 0 1 1.12643 2.54365 A 2.98438 2.98438 0 0 1 85.88919 107.31619 Z m -4.27044 -1.28537 a 5.5477 5.5477 0 0 1 0.61385 0.03149 a 2.82284 2.82284 0 0 1 1.90255 0.71406 a 0.74444 0.74444 0 0 0 0.22616 -0.45475 a 0.73191 0.73191 0 0 0 -0.11687 -0.29852 a 1.52082 1.52082 0 0 0 -0.45747 -0.432 a 7.2197 7.2197 0 0 0 -2.82869 -1.07737 a 8.62418 8.62418 0 0 1 -3.7503 -1.44023 a 3.43424 3.43424 0 0 0 -0.78839 -0.4051 a 4.45439 4.45439 0 0 0 -1.60524 -0.33273 a 3.20648 3.20648 0 0 0 -2.19153 0.86983 a 9.21308 9.21308 0 0 0 -2.09738 2.814 l 0.03361 -0.002 c 0.34878 -0.02134 0.70937 -0.04344 1.06875 -0.04344 l 0.0554 0.00015 a 2.40979 2.40979 0 0 0 1.22618 -0.33259 a 7.4871 7.4871 0 0 1 3.26709 -0.95324 q 0.2096 -0.01317 0.41569 -0.013 a 6.71953 6.71953 0 0 1 3.93393 1.31732 a 0.34957 0.34957 0 0 0 0.21586 0.07614 l 0.0321 -0.00121 C 81.087 106.04551 81.3505 106.03082 81.61875 106.03082 Z m -9.70379 -6.277 c -0.00757 0 -0.02755 0 -0.06706 0.06268 l -0.04087 0.06509 c -0.10309 0.16364 -0.20618 0.32728 -0.30337 0.49441 a 14.86125 14.86125 0 0 0 -0.687 1.33714 a 8.13523 8.13523 0 0 1 3.56455 -1.38725 a 1.81586 1.81586 0 0 0 -0.37769 -0.2136 a 5.38288 5.38288 0 0 0 -2.08708 -0.35847 l -0.00152 -0.31 Z" stroke-linecap="round"/>
</g>
		<g transform="matrix(1 0 0 1 0 0)" id="Layer_1">
<path style="stroke: none; stroke-width: 1; stroke-dasharray: none; stroke-linecap: butt; stroke-dashoffset: 0; stroke-linejoin: miter; stroke-miterlimit: 4; is-custom-font: none; font-file-url: none; fill: rgb(255,255,255); fill-rule: nonzero; opacity: 1;" transform=" translate(-78.8639, -114.1336)" d="M 81.47007 97.53 q 0.43546 0 0.87346 0.02807 a 0.57485 0.57485 0 0 1 0.537 0.3144 a 10.27649 10.27649 0 0 0 0.91167 1.38383 a 5.37964 5.37964 0 0 0 2.01232 1.785 a 3.84884 3.84884 0 0 1 0.76683 0.46238 a 9.5604 9.5604 0 0 1 2.10384 2.21286 a 5.9588 5.9588 0 0 0 2.21084 2.01 a 10.82425 10.82425 0 0 1 1.54132 0.96243 a 4.406 4.406 0 0 1 1.81964 2.4172 a 3.22956 3.22956 0 0 1 -0.27729 2.66462 a 6.21265 6.21265 0 0 0 -0.68834 1.74931 a 1.40437 1.40437 0 0 0 0.2661 1.29663 a 6.55255 6.55255 0 0 1 1.32544 2.6308 c 0.00761 0.03535 0.00315 0.07867 0.05163 0.09144 v 0.69222 c -0.03639 0.00759 -0.04313 0.03554 -0.049 0.06677 a 2.20494 2.20494 0 0 1 -0.72508 1.22481 a 28.57466 28.57466 0 0 0 -2.63183 2.739 a 2.48769 2.48769 0 0 1 -0.96292 0.69255 a 4.96375 4.96375 0 0 1 -1.92667 0.395 c -0.22281 0.00171 -0.30115 0.09057 -0.30422 0.29989 a 3.10668 3.10668 0 0 1 -0.04778 0.48022 a 4.81987 4.81987 0 0 1 -1.37393 2.82645 a 16.62206 16.62206 0 0 1 -3.94541 2.76734 a 7.77946 7.77946 0 0 1 -3.27009 0.92814 a 0.25315 0.25315 0 0 0 -0.22254 0.0859 h -0.27689 a 0.13585 0.13585 0 0 0 -0.14795 -0.0821 l -0.04656 0.00055 l -0.02316 -0.0006 a 5.463 5.463 0 0 1 -1.97091 -0.51393 c -0.989 -0.45578 -1.98226 -0.90229 -2.97208 -1.3563 a 19.68062 19.68062 0 0 1 -2.92122 -1.558 a 4.82255 4.82255 0 0 1 -1.999 -2.31272 a 0.77586 0.77586 0 0 0 -0.74122 -0.55191 a 6.90379 6.90379 0 0 1 -0.80235 -0.072 a 5.82231 5.82231 0 0 1 -3.34132 -1.98358 a 2.9242 2.9242 0 0 1 -0.74921 -1.933 c -0.01537 -0.92173 -0.03067 -1.84364 -0.06257 -2.76489 a 10.44144 10.44144 0 0 0 -0.512 -3.28591 a 1.74071 1.74071 0 0 1 -0.08726 -0.56657 c -0.029 -1.26883 0.02256 -2.5357 0.09626 -3.8016 a 14.67138 14.67138 0 0 1 0.31033 -2.46594 a 0.87478 0.87478 0 0 1 0.2364 -0.4387 a 21.96353 21.96353 0 0 1 4.8299 -3.66895 a 0.53664 0.53664 0 0 0 0.29253 -0.42736 a 9.47374 9.47374 0 0 1 2.15936 -4.59072 a 0.53041 0.53041 0 0 1 0.439 -0.20185 h 0.01511 a 14.55175 14.55175 0 0 1 1.57193 0.08989 a 8.00648 8.00648 0 0 1 2.98587 0.78886 a 0.2842 0.2842 0 0 0 0.1347 0.03877 a 0.27176 0.27176 0 0 0 0.16091 -0.06114 a 7.42192 7.42192 0 0 1 2.55071 -1.136 A 11.45828 11.45828 0 0 1 81.47007 97.53 m 3.94143 10.08835 c 0.04449 -0.001 0.08893 -0.00146 0.13306 -0.00146 a 5.20519 5.20519 0 0 1 2.71 0.73287 a 0.88934 0.88934 0 0 0 0.30761 0.14779 c 0.07947 0 0.08864 -0.10621 0.10567 -0.36145 a 5.83712 5.83712 0 0 0 -0.423 -2.8409 a 5.0138 5.0138 0 0 0 -2.32176 -2.35014 a 9.41024 9.41024 0 0 1 -3.70946 -3.65354 a 0.62815 0.62815 0 0 0 -0.59587 -0.34313 h -0.00229 l -0.02812 0 c -0.30634 0 -0.613 -0.01039 -0.91923 -0.01039 c -0.12988 0 -0.25962 0.00187 -0.38929 0.00719 a 6.18918 6.18918 0 0 0 -2.4638 0.50346 a 2.10246 2.10246 0 0 0 -1.23878 1.31406 a 0.33065 0.33065 0 0 0 0.161 0.429 a 12.19281 12.19281 0 0 0 3.00888 1.30541 c 0.80309 0.20319 1.62241 0.34346 2.41165 0.59939 a 8.70537 8.70537 0 0 1 2.62349 1.20193 a 2.27885 2.27885 0 0 1 1.00526 2.25332 a 3.5697 3.5697 0 0 1 -0.375 1.06656 m -15.28306 -5.06771 c 0.279 -0.18859 0.555 -0.382 0.8376 -0.56494 a 7.5943 7.5943 0 0 1 3.84911 -1.381 c 0.1688 -0.0067 0.12856 -0.07481 0.07385 -0.1681 a 1.54238 1.54238 0 0 0 -0.76055 -0.60808 a 5.63449 5.63449 0 0 0 -2.20625 -0.38468 l -0.00722 -0.00007 a 0.38388 0.38388 0 0 0 -0.32961 0.20789 c -0.11841 0.18831 -0.23777 0.37621 -0.34963 0.56841 a 16.58813 16.58813 0 0 0 -1.1073 2.33059 m 0.04735 3.79854 c 0.0235 0 0.04992 -0.0015 0.07832 -0.00307 c 0.458 -0.0253 0.91645 -0.06212 1.37453 -0.06212 l 0.0523 0.00016 l 0.01746 0.00005 a 2.70055 2.70055 0 0 0 1.36431 -0.37318 a 7.1565 7.1565 0 0 1 3.13314 -0.91325 q 0.19976 -0.01251 0.39612 -0.01247 a 6.38927 6.38927 0 0 1 3.75494 1.26028 a 0.65418 0.65418 0 0 0 0.39475 0.13316 c 0.01768 0 0.03566 -0.00065 0.05406 -0.00195 c 0.274 -0.01935 0.54826 -0.036 0.82261 -0.036 a 5.26012 5.26012 0 0 1 0.58013 0.02971 a 2.28426 2.28426 0 0 1 1.87017 0.81939 c 0.01843 0.02726 0.03764 0.04745 0.0594 0.04745 a 0.06352 0.06352 0 0 0 0.04654 -0.02965 c 0.21473 -0.26614 0.49294 -0.49682 0.49723 -0.90017 a 1.02891 1.02891 0 0 0 -0.16761 -0.45371 a 1.83442 1.83442 0 0 0 -0.54642 -0.52159 a 7.58693 7.58693 0 0 0 -2.9475 -1.1241 a 8.3804 8.3804 0 0 1 -3.62037 -1.38562 a 3.78566 3.78566 0 0 0 -0.85763 -0.44295 a 4.74473 4.74473 0 0 0 -1.71791 -0.354 a 3.52922 3.52922 0 0 0 -2.39669 0.94748 a 9.91845 9.91845 0 0 0 -2.30977 3.18961 c -0.07763 0.16 -0.03077 0.18657 0.06789 0.18657 m -4.89734 9.47273 a 16.205 16.205 0 0 1 0.15733 -2.83221 a 9.24517 9.24517 0 0 1 2.85645 -5.41606 a 1.02021 1.02021 0 0 0 0.36329 -0.78855 a 4.72448 4.72448 0 0 1 0.44979 -1.91293 c 0.02421 -0.05595 0.0936 -0.10935 0.03972 -0.1882 l -0.01968 -0.00073 a 0.68908 0.68908 0 0 0 -0.22222 0.06032 a 3.63968 3.63968 0 0 0 -0.70006 0.34641 a 27.45036 27.45036 0 0 0 -3.487 2.64179 a 0.50062 0.50062 0 0 0 -0.14134 0.20739 a 7.54438 7.54438 0 0 0 -0.47763 1.93927 a 10.56243 10.56243 0 0 0 0.475 4.22957 a 7.44347 7.44347 0 0 0 0.70635 1.71393 m 8.774 0.42352 a 1.08744 1.08744 0 0 0 0.63152 -0.17477 a 0.21179 0.21179 0 0 0 -0.02744 -0.03616 c -0.04657 -0.04012 -0.0951 -0.078 -0.14158 -0.11818 a 4.35209 4.35209 0 0 1 -1.6614 -3.23783 a 5.47753 5.47753 0 0 1 0.84054 -3.01495 a 4.116 4.116 0 0 1 3.74772 -2.1779 a 6.18718 6.18718 0 0 1 0.87324 0.06451 a 7.64376 7.64376 0 0 1 2.00358 0.59907 a 0.93383 0.93383 0 0 0 -0.25627 -0.30369 a 6.42978 6.42978 0 0 0 -1.45728 -1.00168 a 5.0932 5.0932 0 0 0 -2.31564 -0.60957 a 4.19978 4.19978 0 0 0 -1.80557 0.41407 a 8.01559 8.01559 0 0 0 -4.26056 4.7564 a 3.0143 3.0143 0 0 0 -0.04864 1.9701 a 3.94907 3.94907 0 0 0 3.39114 2.824 a 3.07912 3.07912 0 0 0 0.48664 0.04654 m 17.08459 -1.52786 c 0.10051 -0.03181 0.12147 -0.11194 0.16068 -0.17542 a 24.399 24.399 0 0 0 1.48691 -2.95664 a 2.417 2.417 0 0 0 -0.13038 -2.29356 a 8.86187 8.86187 0 0 0 -2.526 -2.64817 a 0.18759 0.18759 0 0 0 -0.10643 -0.04647 c -0.04183 0 -0.07747 0.02879 -0.113 0.09022 a 3.30339 3.30339 0 0 0 -0.26079 3.30957 a 14.71935 14.71935 0 0 1 1.17679 3.33 c 0.10587 0.46223 0.20787 0.92535 0.31218 1.39051 m -13.644 5.36828 a 7.732 7.732 0 0 1 -0.9775 -0.06353 a 4.98013 4.98013 0 0 1 -2.73754 -1.1544 a 5.25647 5.25647 0 0 1 -1.16668 -1.529 a 0.31887 0.31887 0 0 0 -0.0439 0.22822 a 7.26933 7.26933 0 0 0 0.16359 1.46228 a 5.3725 5.3725 0 0 0 1.30919 2.69842 a 4.4315 4.4315 0 0 0 3.37486 1.32275 h 0.01494 a 10.21339 10.21339 0 0 0 4.31681 -1.03081 a 8.1267 8.1267 0 0 0 4.574 -8.40457 a 9.18114 9.18114 0 0 0 -2.68106 -5.19055 a 2.07831 2.07831 0 0 0 -1.39912 -0.675 c -0.03338 -0.00171 -0.0719 -0.00738 -0.10808 -0.00738 a 0.12219 0.12219 0 0 0 -0.1085 0.04277 c -0.05285 0.07657 0.04691 0.13253 0.08116 0.19576 c 0.04742 0.08757 0.10868 0.1675 0.15956 0.25334 a 10.24928 10.24928 0 0 1 1.68392 5.792 a 6.02547 6.02547 0 0 1 -2.06092 4.35423 a 6.4067 6.4067 0 0 1 -4.39472 1.70545 m -6.77682 -12.28807 a 2.42687 2.42687 0 0 0 -0.62382 0.17456 a 4.42159 4.42159 0 0 0 -1.64979 1.30092 a 8.22653 8.22653 0 0 0 -2.026 5.17078 a 3.12028 3.12028 0 0 0 0.72224 2.449 a 23.38451 23.38451 0 0 1 2.7683 3.95738 a 11.31294 11.31294 0 0 0 1.84617 2.37643 a 5.32366 5.32366 0 0 0 2.47874 1.48136 a 3.67017 3.67017 0 0 0 0.79229 0.09047 a 3.1395 3.1395 0 0 0 1.69159 -0.49767 c -0.27569 -0.06279 -0.49979 -0.10892 -0.72134 -0.1651 a 6.14119 6.14119 0 0 1 -3.82755 -2.60108 a 7.5474 7.5474 0 0 1 -1.07784 -4.76367 a 0.507 0.507 0 0 0 -0.26266 -0.525 a 3.75347 3.75347 0 0 1 -1.74646 -3.08089 a 7.63032 7.63032 0 0 1 0.52659 -3.06449 a 13.43186 13.43186 0 0 1 1.10952 -2.303 m 9.62111 16.15136 l -0.03269 -0.00014 l -0.0244 -0.00011 a 2.74658 2.74658 0 0 0 -2.02448 0.94322 c -0.13051 0.134 -0.10483 0.22029 0.05788 0.29113 a 9.99917 9.99917 0 0 0 2.292 0.745 a 2.785 2.785 0 0 0 0.47157 0.04231 a 1.96037 1.96037 0 0 0 1.51391 -0.67952 a 5.20643 5.20643 0 0 1 0.56655 -0.506 a 13.304 13.304 0 0 1 3.6469 -2.02685 a 6.21867 6.21867 0 0 0 2.447 -1.63593 a 4.26875 4.26875 0 0 0 1.15173 -2.9764 a 7.21151 7.21151 0 0 0 -0.31914 -1.48029 c -0.31547 -1.3997 -0.6175 -2.80242 -0.92582 -4.20372 a 5.99133 5.99133 0 0 0 -1.34315 -2.86156 a 2.06639 2.06639 0 0 0 -1.58359 -0.73924 a 2.54669 2.54669 0 0 0 -0.33593 0.023 a 4.04449 4.04449 0 0 1 1.00276 1.71151 a 15.27505 15.27505 0 0 1 0.72974 4.22883 a 6.10045 6.10045 0 0 1 -0.48519 2.94817 a 13.64914 13.64914 0 0 1 -4.53461 5.41436 a 3.87153 3.87153 0 0 1 -2.27109 0.76225 m -5.7643 -10.323 c 0.13637 -0.31051 0.23857 -0.58483 0.37329 -0.84211 a 2.84692 2.84692 0 0 1 1.72985 -1.55966 a 2.71137 2.71137 0 0 1 2.87671 0.87983 a 2.30526 2.30526 0 0 1 0.69841 2.158 a 4.137 4.137 0 0 1 -0.97624 1.878 a 0.61313 0.61313 0 0 1 -0.45434 0.19222 a 8.30832 8.30832 0 0 0 -1.27407 0.19216 a 10.746 10.746 0 0 0 -2.68006 0.95111 c -0.156 0.08263 -0.19895 0.12673 -0.04022 0.25906 a 7.27881 7.27881 0 0 0 0.89221 0.65074 a 3.94829 3.94829 0 0 0 2.053 0.62382 a 3.87076 3.87076 0 0 0 2.18682 -0.73195 a 8.0571 8.0571 0 0 0 2.6749 -3.19735 a 2.72423 2.72423 0 0 0 0.24994 -0.95292 a 4.8665 4.8665 0 0 0 -0.525 -2.56228 a 4.36248 4.36248 0 0 0 -2.90469 -2.53076 a 3.85913 3.85913 0 0 0 -0.9863 -0.12773 a 5.22646 5.22646 0 0 0 -2.35291 0.63428 a 2.9908 2.9908 0 0 0 -1.801 2.66058 a 3.2303 3.2303 0 0 0 0.25959 1.425 m 3.057 1.9285 a 1.488 1.488 0 0 0 -0.00274 -2.97585 l -0.02019 -0.00015 a 1.48825 1.48825 0 0 0 -0.0049 2.97573 l 0.02783 0.00027 m 13.83907 4.50283 a 9.87079 9.87079 0 0 0 1.81634 -1.75865 a 1.01112 1.01112 0 0 0 0.17658 -0.72188 a 3.7093 3.7093 0 0 0 -1.216 -2.17446 a 24.59223 24.59223 0 0 0 -0.77693 4.655 M 68.599 123.03808 c 0.095 0 0.13556 -0.047 0.13707 -0.16212 a 5.56516 5.56516 0 0 0 -1.10974 -3.6259 a 2.48371 2.48371 0 0 0 -1.29831 -0.90931 a 2.78985 2.78985 0 0 1 -0.54939 -0.2312 A 10.18719 10.18719 0 0 1 64.5 117.24971 a 15.11677 15.11677 0 0 1 0.47407 3.67941 a 1.3772 1.3772 0 0 0 0.74444 1.28579 a 7.62572 7.62572 0 0 0 2.83383 0.82 a 0.387 0.387 0 0 0 0.04672 0.00313 m 11.90868 6.32428 q 0.14813 0 0.29674 -0.00209 a 0.63084 0.63084 0 0 0 0.26225 -0.07494 a 15.58517 15.58517 0 0 0 2.38729 -1.38576 a 10.3882 10.3882 0 0 0 3.09731 -3.20949 c 0.04666 -0.08009 0.12761 -0.15377 0.10678 -0.26734 l -0.01524 -0.00059 c -0.1 0 -0.14256 0.07978 -0.199 0.12876 a 14.96433 14.96433 0 0 1 -2.49159 1.81536 a 7.12933 7.12933 0 0 1 -3.39482 0.97517 l -0.07882 0.00061 a 4.38 4.38 0 0 1 -3.03236 -1.17639 a 0.48167 0.48167 0 0 0 -0.34084 -0.14613 a 0.6531 0.6531 0 0 0 -0.11273 0.01055 a 10.08259 10.08259 0 0 1 -1.74186 0.15429 q -0.19512 0 -0.39073 -0.008 a 5.1613 5.1613 0 0 1 -3.12182 -1.14532 c -0.52595 -0.42481 -1.03559 -0.86769 -1.53952 -1.31774 c -0.00622 -0.01429 -0.01259 -0.03337 -0.026 -0.03337 a 0.02593 0.02593 0 0 0 -0.01557 0.00683 c -0.00866 0.00685 0.00256 0.03881 0.0047 0.0593 a 7.69506 7.69506 0 0 0 3.49974 3.98614 a 13.52422 13.52422 0 0 0 6.84613 1.63014 M 81.47032 96.91 h 0 a 12.14816 12.14816 0 0 0 -3.03074 0.37121 a 8.20182 8.20182 0 0 0 -2.58893 1.11464 a 8.90262 8.90262 0 0 0 -3.02148 -0.76114 a 15.06645 15.06645 0 0 0 -1.63886 -0.09352 H 71.19 l -0.01545 0 a 1.14687 1.14687 0 0 0 -0.912 0.42173 a 10.129 10.129 0 0 0 -2.29671 4.88521 a 22.76283 22.76283 0 0 0 -4.94867 3.76232 a 1.49907 1.49907 0 0 0 -0.40326 0.73855 a 15.40866 15.40866 0 0 0 -0.32526 2.56973 c -0.06576 1.12956 -0.12872 2.47052 -0.09714 3.85181 a 2.32909 2.32909 0 0 0 0.12512 0.76619 a 9.99777 9.99777 0 0 1 0.47434 3.09357 c 0.03159 0.9121 0.0471 1.84287 0.06211 2.743 a 3.54927 3.54927 0 0 0 0.90277 2.3418 a 6.45751 6.45751 0 0 0 3.69112 2.18416 a 4.93577 4.93577 0 0 0 0.67346 0.06922 c 0.06712 0.00371 0.13423 0.00739 0.20106 0.01221 c 0.14784 0.01068 0.16629 0.04288 0.2023 0.14311 a 5.46264 5.46264 0 0 0 2.23336 2.6155 a 20.23987 20.23987 0 0 0 3.01184 1.60913 q 0.665 0.305 1.33142 0.60706 q 0.82048 0.373 1.63965 0.74878 a 6.09578 6.09578 0 0 0 1.992 0.554 l 0.04073 0.099 h 1.016 l 0.064 -0.0918 a 8.46525 8.46525 0 0 0 3.38111 -0.98715 a 17.316 17.316 0 0 0 4.09252 -2.8694 a 5.41549 5.41549 0 0 0 1.56167 -3.17414 c 0.01639 -0.095 0.02916 -0.18634 0.03843 -0.27506 a 5.56449 5.56449 0 0 0 1.8725 -0.43508 a 3.11691 3.11691 0 0 0 1.197 -0.86715 a 27.92782 27.92782 0 0 1 2.57519 -2.67924 a 2.91918 2.91918 0 0 0 0.821 -1.21129 l 0.15244 -0.03184 v -1.67405 l -0.13647 -0.03595 a 7.33647 7.33647 0 0 0 -1.37081 -2.58857 a 0.78857 0.78857 0 0 1 -0.15615 -0.75927 a 5.64039 5.64039 0 0 1 0.6139 -1.57716 a 3.859 3.859 0 0 0 0.35209 -3.14979 a 5.07039 5.07039 0 0 0 -2.05148 -2.76018 a 11.38036 11.38036 0 0 0 -1.62975 -1.01691 a 5.32727 5.32727 0 0 1 -1.9801 -1.80845 a 10.22648 10.22648 0 0 0 -2.23975 -2.35512 a 4.45273 4.45273 0 0 0 -0.89033 -0.53524 A 4.74269 4.74269 0 0 1 84.283 98.87735 a 9.60171 9.60171 0 0 1 -0.85718 -1.30012 a 1.18049 1.18049 0 0 0 -1.04317 -0.638 c -0.30775 -0.01944 -0.6147 -0.0293 -0.91231 -0.0293 Z m -4.23464 3.85081 a 1.59267 1.59267 0 0 1 0.8468 -0.75266 a 5.61574 5.61574 0 0 1 2.22176 -0.44334 c 0.12122 -0.005 0.2425 -0.00666 0.3639 -0.00666 c 0.1496 0 0.2993 0.00256 0.449 0.0051 c 0.15675 0.00265 0.31351 0.00528 0.4702 0.00528 l 0.02961 0 a 0.29987 0.29987 0 0 1 0.03868 0.0021 a 0.2928 0.2928 0 0 1 0.023 0.03439 a 9.9534 9.9534 0 0 0 3.95179 3.88675 a 4.38237 4.38237 0 0 1 2.04911 2.05818 a 4.76317 4.76317 0 0 1 0.38839 2.00038 a 5.80076 5.80076 0 0 0 -1.75467 -0.5062 a 2.93722 2.93722 0 0 0 -1.15978 -3.24151 a 9.17 9.17 0 0 0 -2.80441 -1.29582 c -0.53879 -0.17472 -1.0858 -0.29714 -1.61479 -0.41554 c -0.276 -0.06178 -0.56145 -0.12567 -0.836 -0.19515 a 11.23614 11.23614 0 0 1 -2.66254 -1.13527 Z m -5.68085 0.15834 q 0.1064 -0.19746 0.2168 -0.38714 c 0.08986 -0.1544 0.18475 -0.30573 0.28493 -0.4649 a 6.14321 6.14321 0 0 1 1.2629 0.14308 a 8.4256 8.4256 0 0 0 -1.76463 0.709 Z m -0.49416 4.7596 a 8.461 8.461 0 0 1 1.76719 -2.2407 a 2.90966 2.90966 0 0 1 1.9865 -0.79243 a 4.14982 4.14982 0 0 1 1.49287 0.31174 a 3.13875 3.13875 0 0 1 0.71864 0.36712 a 8.924 8.924 0 0 0 3.8807 1.495 a 6.91713 6.91713 0 0 1 2.70986 1.03043 a 1.22743 1.22743 0 0 1 0.36837 0.34261 a 0.52711 0.52711 0 0 1 0.04352 0.08085 a 3.60441 3.60441 0 0 0 -1.74586 -0.51737 l -0.01569 -0.00173 a 5.84258 5.84258 0 0 0 -0.64844 -0.03349 c -0.27773 0 -0.54718 0.015 -0.86631 0.03756 l -0.01625 0.00014 a 0.21657 0.21657 0 0 1 -0.03031 -0.01872 a 7.02371 7.02371 0 0 0 -4.11349 -1.37445 c -0.14359 0 -0.28991 0.0046 -0.43488 0.01368 a 7.79572 7.79572 0 0 0 -3.40114 0.99323 a 2.09235 2.09235 0 0 1 -1.05755 0.292 l -0.06977 -0.00022 c -0.19061 0 -0.38034 0.006 -0.568 0.01477 Z m -5.91415 2.5011 a 29.99425 29.99425 0 0 1 2.98333 -2.31243 a 4.4077 4.4077 0 0 0 -0.09438 0.92076 a 0.401 0.401 0 0 1 -0.16009 0.32647 a 9.73134 9.73134 0 0 0 -3.01856 5.59639 a 9.23586 9.23586 0 0 1 -0.143 -2.76838 a 6.86273 6.86273 0 0 1 0.43267 -1.76281 Z m 8.11485 7.32532 a 3.26906 3.26906 0 0 1 -2.49649 -2.32046 a 2.39744 2.39744 0 0 1 0.04257 -1.57181 a 7.43437 7.43437 0 0 1 3.94014 -4.4033 a 3.55851 3.55851 0 0 1 1.54189 -0.35522 a 3.63961 3.63961 0 0 1 0.55157 0.043 A 4.74583 4.74583 0 0 0 73.16 109.34866 a 6.06945 6.06945 0 0 0 -0.92609 3.35059 a 4.66682 4.66682 0 0 0 1.02747 2.80588 Z m 18.14251 -2.426 a 15.162 15.162 0 0 0 -1.20145 -3.35988 a 2.49218 2.49218 0 0 1 -0.00289 -2.23708 a 7.56891 7.56891 0 0 1 1.91559 2.116 A 1.79717 1.79717 0 0 1 92.218 111.334 c -0.27275 0.61447 -0.53345 1.19194 -0.81407 1.74519 Z m -13.91074 7.62678 a 7.02777 7.02777 0 0 0 4.80808 -1.86334 a 6.63516 6.63516 0 0 0 2.26688 -4.78625 a 9.92537 9.92537 0 0 0 -1.11414 -4.92556 a 8.35768 8.35768 0 0 1 2.25285 4.57028 a 7.47521 7.47521 0 0 1 -4.22009 7.756 a 9.56492 9.56492 0 0 1 -4.05662 0.97358 a 3.83126 3.83126 0 0 1 -2.94021 -1.12972 a 4.38155 4.38155 0 0 1 -1.02723 -1.88688 a 5.59209 5.59209 0 0 0 2.97464 1.22342 a 8.3911 8.3911 0 0 0 1.05584 0.06851 Z m -3.72486 3.201 a 5.70527 5.70527 0 0 1 -1.58938 -1.1311 a 10.54486 10.54486 0 0 1 -1.74275 -2.249 l -0.22624 -0.37082 a 21.63112 21.63112 0 0 0 -2.61985 -3.68833 a 2.52126 2.52126 0 0 1 -0.55346 -2.00845 a 7.55646 7.55646 0 0 1 1.88247 -4.789 q 0.16858 -0.20232 0.336 -0.37057 q -0.12449 0.29532 -0.2312 0.59 a 8.1476 8.1476 0 0 0 -0.56263 3.3117 a 4.35653 4.35653 0 0 0 2.008 3.55188 a 8.13775 8.13775 0 0 0 1.17854 5.12028 a 6.31743 6.31743 0 0 0 2.12055 2.03347 Z m 1.28154 -12.36525 a 2.44364 2.44364 0 0 1 1.34447 -1.4477 a 4.59779 4.59779 0 0 1 2.07314 -0.56757 a 3.25977 3.25977 0 0 1 0.8286 0.10733 a 3.72187 3.72187 0 0 1 2.5007 2.19371 a 4.21846 4.21846 0 0 1 0.46952 2.23939 a 2.113 2.113 0 0 1 -0.18833 0.73776 a 7.4126 7.4126 0 0 1 -2.467 2.95933 a 3.28086 3.28086 0 0 1 -1.83922 0.62536 a 3.35661 3.35661 0 0 1 -1.7324 -0.53449 c -0.07294 -0.04407 -0.14674 -0.09147 -0.22234 -0.1429 a 11.23121 11.23121 0 0 1 1.867 -0.5826 a 7.63585 7.63585 0 0 1 1.17908 -0.17824 a 1.21561 1.21561 0 0 0 0.88593 -0.41087 a 4.68774 4.68774 0 0 0 1.111 -2.15931 a 2.91971 2.91971 0 0 0 -0.86218 -2.70861 a 3.48928 3.48928 0 0 0 -2.534 -1.18208 a 3.52589 3.52589 0 0 0 -0.956 0.13748 a 3.05317 3.05317 0 0 0 -1.458 0.914 Z m 5.28761 13.02751 a 4.47346 4.47346 0 0 0 2.63076 -0.87722 a 14.30834 14.30834 0 0 0 4.73682 -5.65721 a 6.69279 6.69279 0 0 0 0.54253 -3.24266 a 15.79471 15.79471 0 0 0 -0.76282 -4.39882 c -0.04434 -0.12849 -0.09245 -0.26095 -0.14643 -0.39562 l 0.01949 0.02107 a 5.30939 5.30939 0 0 1 1.19514 2.57635 q 0.14727 0.66936 0.29327 1.339 c 0.209 0.9564 0.418 1.9128 0.63324 2.86779 c 0.03915 0.17369 0.08663 0.33909 0.13255 0.499 a 3.3916 3.3916 0 0 1 0.17148 0.85388 a 3.63761 3.63761 0 0 1 -0.99532 2.55566 a 5.57874 5.57874 0 0 1 -2.20907 1.47017 a 13.78722 13.78722 0 0 0 -3.81371 2.12432 l -0.04775 0.039 a 5.23209 5.23209 0 0 0 -0.5848 0.52963 a 1.34667 1.34667 0 0 1 -1.05548 0.477 a 2.17687 2.17687 0 0 1 -0.36649 -0.03333 a 7.92449 7.92449 0 0 1 -1.49024 -0.43009 a 1.87512 1.87512 0 0 1 1.05974 -0.31817 l 0.01882 0.00009 l 0.03827 0.00016 Z m -2.70733 -9.63456 l -0.01576 -0.00016 a 0.85239 0.85239 0 1 1 0.01576 0.00016 Z m 14.63138 3.60372 c 0.07286 -0.605 0.15778 -1.19769 0.2788 -1.784 a 2.04755 2.04755 0 0 1 0.30438 0.87963 a 0.38547 0.38547 0 0 1 -0.05528 0.293 a 6.12507 6.12507 0 0 1 -0.5279 0.61141 Z M 68.10419 122.3448 a 6.28407 6.28407 0 0 1 -2.08454 -0.67188 a 0.76267 0.76267 0 0 1 -0.42558 -0.74555 a 15.235 15.235 0 0 0 -0.183 -2.31168 q 0.03837 0.02111 0.07727 0.04174 a 3.40732 3.40732 0 0 0 0.67146 0.2801 a 1.8675 1.8675 0 0 1 0.97744 0.6936 a 4.7391 4.7391 0 0 1 0.967 2.71367 Z m 12.40349 6.39751 a 12.90815 12.90815 0 0 1 -6.53963 -1.54909 a 8.107 8.107 0 0 1 -1.22262 -0.84578 a 6.05014 6.05014 0 0 0 2.08926 0.44848 q 0.20835 0.00853 0.41612 0.0085 a 10.73814 10.73814 0 0 0 1.80491 -0.156 a 4.9865 4.9865 0 0 0 3.42288 1.31365 l 0.08839 -0.00068 a 7.17352 7.17352 0 0 0 2.333 -0.43194 a 15.09919 15.09919 0 0 1 -2.09668 1.19449 c -0.0122 0.00572 -0.02405 0.01172 -0.03618 0.01668 q -0.12992 0.00165 -0.25948 0.00166 Z" stroke-linecap="round"/>
</g>
		<g transform="matrix(1 0 0 1 0.6127 1.2655)" id="Layer_1">
<path style="stroke: none; stroke-width: 1; stroke-dasharray: none; stroke-linecap: butt; stroke-dashoffset: 0; stroke-linejoin: miter; stroke-miterlimit: 4; is-custom-font: none; font-file-url: none; fill: rgb(254,253,253); fill-rule: nonzero; opacity: 1;" transform=" translate(-79.4766, -115.3991)" d="M 72.61143 117.339 a 5.25627 5.25627 0 0 0 1.16667 1.529 a 4.9802 4.9802 0 0 0 2.73754 1.1544 a 6.48887 6.48887 0 0 0 5.37222 -1.64192 a 6.02544 6.02544 0 0 0 2.06092 -4.35423 a 10.24936 10.24936 0 0 0 -1.68392 -5.792 c -0.05088 -0.08584 -0.11214 -0.16577 -0.15956 -0.25333 c -0.03425 -0.06325 -0.134 -0.1192 -0.08116 -0.19577 c 0.04314 -0.06249 0.14247 -0.03919 0.21659 -0.03539 a 2.07832 2.07832 0 0 1 1.39911 0.675 a 9.18123 9.18123 0 0 1 2.68106 5.19055 a 8.1267 8.1267 0 0 1 -4.574 8.40458 a 10.20619 10.20619 0 0 1 -4.33174 1.0308 a 4.43147 4.43147 0 0 1 -3.37486 -1.32275 a 5.37235 5.37235 0 0 1 -1.3092 -2.69842 a 7.26933 7.26933 0 0 1 -0.16359 -1.46228 A 0.31878 0.31878 0 0 1 72.61143 117.339 Z" stroke-linecap="round"/>
</g>
		<g transform="matrix(1 0 0 1 5.4244 3.2854)" id="Layer_1">
<path style="stroke: none; stroke-width: 1; stroke-dasharray: none; stroke-linecap: butt; stroke-dashoffset: 0; stroke-linejoin: miter; stroke-miterlimit: 4; is-custom-font: none; font-file-url: none; fill: rgb(254,253,253); fill-rule: nonzero; opacity: 1;" transform=" translate(-84.2883, -117.4191)" d="M 85.89582 108.884 a 2.07242 2.07242 0 0 1 1.91952 0.71626 a 5.9912 5.9912 0 0 1 1.34315 2.86156 c 0.30832 1.40131 0.61035 2.804 0.92582 4.20372 a 7.21153 7.21153 0 0 1 0.31915 1.48029 a 4.26881 4.26881 0 0 1 -1.15174 2.9764 a 6.21857 6.21857 0 0 1 -2.447 1.63593 a 13.304 13.304 0 0 0 -3.6469 2.02685 a 5.20643 5.20643 0 0 0 -0.56655 0.506 a 2.0354 2.0354 0 0 1 -1.98548 0.63721 a 9.99941 9.99941 0 0 1 -2.292 -0.745 c -0.1627 -0.07084 -0.18838 -0.15715 -0.05787 -0.29113 a 2.7418 2.7418 0 0 1 2.04888 -0.94311 a 3.86613 3.86613 0 0 0 2.30378 -0.76211 a 13.64918 13.64918 0 0 0 4.53461 -5.41435 a 6.10063 6.10063 0 0 0 0.4852 -2.94818 a 15.2753 15.2753 0 0 0 -0.72975 -4.22882 A 4.04452 4.04452 0 0 0 85.89582 108.884 Z" stroke-linecap="round"/>
</g>
		<g transform="matrix(1 0 0 1 -0.2611 -0.169)" id="Layer_1">
<path style="stroke: none; stroke-width: 1; stroke-dasharray: none; stroke-linecap: butt; stroke-dashoffset: 0; stroke-linejoin: miter; stroke-miterlimit: 4; is-custom-font: none; font-file-url: none; fill: rgb(254,253,253); fill-rule: nonzero; opacity: 1;" transform=" translate(-78.6027, -113.9646)" d="M 74.57313 113.62619 a 3.2303 3.2303 0 0 1 -0.25959 -1.425 a 2.9908 2.9908 0 0 1 1.801 -2.66058 a 4.63323 4.63323 0 0 1 3.33922 -0.50655 a 4.36246 4.36246 0 0 1 2.90469 2.53075 a 4.86656 4.86656 0 0 1 0.525 2.56229 a 2.72407 2.72407 0 0 1 -0.24994 0.95292 a 8.057 8.057 0 0 1 -2.6749 3.19735 a 3.6596 3.6596 0 0 1 -4.23986 0.10813 a 7.27881 7.27881 0 0 1 -0.89221 -0.65074 c -0.15873 -0.13233 -0.11573 -0.17643 0.04022 -0.25906 a 10.746 10.746 0 0 1 2.68006 -0.95111 a 8.30832 8.30832 0 0 1 1.27407 -0.19216 a 0.61309 0.61309 0 0 0 0.45434 -0.19222 a 4.13723 4.13723 0 0 0 0.97624 -1.878 a 2.30527 2.30527 0 0 0 -0.69841 -2.158 a 2.74914 2.74914 0 0 0 -2.87671 -0.87982 a 2.84687 2.84687 0 0 0 -1.72985 1.55965 C 74.8117 113.04137 74.70949 113.31568 74.57313 113.62619 Z" stroke-linecap="round"/>
</g>
		<g transform="matrix(1 0 0 1 -7.3116 2.1663)" id="Layer_1">
<path style="stroke: none; stroke-width: 1; stroke-dasharray: none; stroke-linecap: butt; stroke-dashoffset: 0; stroke-linejoin: miter; stroke-miterlimit: 4; is-custom-font: none; font-file-url: none; fill: rgb(254,253,253); fill-rule: nonzero; opacity: 1;" transform=" translate(-71.5522, -116.2999)" d="M 76.71606 124.30106 a 3.18974 3.18974 0 0 1 -2.48388 0.4072 a 5.32357 5.32357 0 0 1 -2.47874 -1.48136 a 11.31294 11.31294 0 0 1 -1.84617 -2.37643 a 23.38394 23.38394 0 0 0 -2.7683 -3.95738 a 3.1203 3.1203 0 0 1 -0.72224 -2.449 a 8.22647 8.22647 0 0 1 2.026 -5.17078 a 4.42163 4.42163 0 0 1 1.64978 -1.30092 a 2.42746 2.42746 0 0 1 0.62383 -0.17456 a 13.4323 13.4323 0 0 0 -1.10953 2.303 a 7.63068 7.63068 0 0 0 -0.52659 3.06448 a 3.75352 3.75352 0 0 0 1.74647 3.0809 a 0.507 0.507 0 0 1 0.26266 0.525 a 7.5474 7.5474 0 0 0 1.07784 4.76367 a 6.14122 6.14122 0 0 0 3.82755 2.60108 C 76.21627 124.19214 76.44036 124.23826 76.71606 124.30106 Z" stroke-linecap="round"/>
</g>
		<g transform="matrix(1 0 0 1 3.7594 -10.4159)" id="Layer_1">
<path style="stroke: none; stroke-width: 1; stroke-dasharray: none; stroke-linecap: butt; stroke-dashoffset: 0; stroke-linejoin: miter; stroke-miterlimit: 4; is-custom-font: none; font-file-url: none; fill: rgb(254,253,253); fill-rule: nonzero; opacity: 1;" transform=" translate(-82.6233, -103.7178)" d="M 85.4115 107.61836 a 3.56974 3.56974 0 0 0 0.375 -1.06655 a 2.27886 2.27886 0 0 0 -1.00526 -2.25333 a 8.70526 8.70526 0 0 0 -2.62349 -1.20193 c -0.78923 -0.25594 -1.60856 -0.39619 -2.41165 -0.5994 a 12.19206 12.19206 0 0 1 -3.00888 -1.30541 a 0.33063 0.33063 0 0 1 -0.161 -0.429 A 2.10249 2.10249 0 0 1 77.815 99.4487 a 6.18918 6.18918 0 0 1 2.4638 -0.50346 c 0.44474 -0.01824 0.891 0.00412 1.33664 0.00317 a 0.6285 0.6285 0 0 1 0.59816 0.34313 a 9.4103 9.4103 0 0 0 3.70946 3.65354 a 5.01378 5.01378 0 0 1 2.32176 2.35013 a 5.83712 5.83712 0 0 1 0.423 2.8409 c -0.02923 0.438 -0.03534 0.43719 -0.41328 0.21367 A 5.22535 5.22535 0 0 0 85.4115 107.61836 Z" stroke-linecap="round"/>
</g>
		<g transform="matrix(1 0 0 1 -1.4935 -9.5085)" id="Layer_1">
<path style="stroke: none; stroke-width: 1; stroke-dasharray: none; stroke-linecap: butt; stroke-dashoffset: 0; stroke-linejoin: miter; stroke-miterlimit: 4; is-custom-font: none; font-file-url: none; fill: rgb(254,253,253); fill-rule: nonzero; opacity: 1;" transform=" translate(-77.3704, -104.6251)" d="M 84.6718 106.30751 c -0.00429 0.40335 -0.2825 0.634 -0.49723 0.90017 c -0.04281 0.05307 -0.07544 0.02731 -0.106 -0.0178 a 2.28424 2.28424 0 0 0 -1.87016 -0.81939 a 7.74587 7.74587 0 0 0 -1.40274 0.00631 a 0.65277 0.65277 0 0 1 -0.44881 -0.13122 a 6.33545 6.33545 0 0 0 -4.15106 -1.2478 a 7.15638 7.15638 0 0 0 -3.13314 0.91326 a 2.69927 2.69927 0 0 1 -1.38177 0.37312 c -0.4755 -0.003 -0.95142 0.03569 -1.42683 0.062 c -0.14761 0.00815 -0.24233 0.01463 -0.14621 -0.1835 a 9.9183 9.9183 0 0 1 2.30977 -3.18961 a 3.73621 3.73621 0 0 1 4.11461 -0.59346 a 3.78536 3.78536 0 0 1 0.85762 0.44294 a 8.38058 8.38058 0 0 0 3.62037 1.38562 a 7.58682 7.58682 0 0 1 2.94749 1.1241 a 1.83433 1.83433 0 0 1 0.54643 0.52159 A 1.02891 1.02891 0 0 1 84.6718 106.30751 Z" stroke-linecap="round"/>
</g>
		<g transform="matrix(1 0 0 1 -3.6883 -2.8851)" id="Layer_1">
<path style="stroke: none; stroke-width: 1; stroke-dasharray: none; stroke-linecap: butt; stroke-dashoffset: 0; stroke-linejoin: miter; stroke-miterlimit: 4; is-custom-font: none; font-file-url: none; fill: rgb(254,253,253); fill-rule: nonzero; opacity: 1;" transform=" translate(-75.1756, -111.2485)" d="M 80.31868 108.14923 a 7.64407 7.64407 0 0 0 -2.00357 -0.59907 a 4.24716 4.24716 0 0 0 -4.621 2.11339 a 5.47755 5.47755 0 0 0 -0.84054 3.01495 a 4.35205 4.35205 0 0 0 1.6614 3.23783 c 0.04648 0.04022 0.095 0.07806 0.14158 0.11818 a 0.20344 0.20344 0 0 1 0.02733 0.03624 a 1.43257 1.43257 0 0 1 -1.118 0.12815 a 3.94907 3.94907 0 0 1 -3.39114 -2.824 a 3.0142 3.0142 0 0 1 0.04864 -1.97009 a 8.01556 8.01556 0 0 1 4.26056 -4.7564 a 4.48073 4.48073 0 0 1 4.12121 0.1955 a 6.42978 6.42978 0 0 1 1.45728 1.00168 A 0.93394 0.93394 0 0 1 80.31868 108.14923 Z" stroke-linecap="round"/>
</g>
		<g transform="matrix(1 0 0 1 -0.4523 12.4106)" id="Layer_1">
<path style="stroke: none; stroke-width: 1; stroke-dasharray: none; stroke-linecap: butt; stroke-dashoffset: 0; stroke-linejoin: miter; stroke-miterlimit: 4; is-custom-font: none; font-file-url: none; fill: rgb(254,253,253); fill-rule: nonzero; opacity: 1;" transform=" translate(-78.4116, -126.5442)" d="M 70.19875 123.71332 c 0.50392 0.45005 1.01356 0.89292 1.53951 1.31774 a 5.1613 5.1613 0 0 0 3.12182 1.14532 a 9.96733 9.96733 0 0 0 2.13259 -0.1463 a 0.48259 0.48259 0 0 1 0.45357 0.13558 a 4.386 4.386 0 0 0 3.11118 1.17578 a 7.12937 7.12937 0 0 0 3.39482 -0.97517 a 14.96376 14.96376 0 0 0 2.49159 -1.81536 c 0.05921 -0.05139 0.1031 -0.13671 0.21423 -0.12817 c 0.02083 0.11357 -0.06011 0.18725 -0.10678 0.26734 a 10.38835 10.38835 0 0 1 -3.09731 3.2095 a 15.58511 15.58511 0 0 1 -2.38729 1.38575 a 0.63069 0.63069 0 0 1 -0.26225 0.07494 a 13.70875 13.70875 0 0 1 -7.14287 -1.62805 a 7.69517 7.69517 0 0 1 -3.49975 -3.98614 Z" stroke-linecap="round"/>
</g>
		<g transform="matrix(1 0 0 1 -12.2547 -3.8806)" id="Layer_1">
<path style="stroke: none; stroke-width: 1; stroke-dasharray: none; stroke-linecap: butt; stroke-dashoffset: 0; stroke-linejoin: miter; stroke-miterlimit: 4; is-custom-font: none; font-file-url: none; fill: rgb(254,253,253); fill-rule: nonzero; opacity: 1;" transform=" translate(-66.6092, -110.2529)" d="M 65.27845 115.82193 a 7.44373 7.44373 0 0 1 -0.70635 -1.71394 a 10.56243 10.56243 0 0 1 -0.475 -4.22957 a 7.54428 7.54428 0 0 1 0.47763 -1.93927 a 0.50062 0.50062 0 0 1 0.14134 -0.20739 a 27.44965 27.44965 0 0 1 3.487 -2.64179 a 3.64 3.64 0 0 1 0.70006 -0.34641 a 0.60212 0.60212 0 0 1 0.2419 -0.05959 c 0.05388 0.07885 -0.01551 0.13225 -0.03973 0.1882 a 4.72464 4.72464 0 0 0 -0.44978 1.91293 a 1.02021 1.02021 0 0 1 -0.36329 0.78855 a 9.24517 9.24517 0 0 0 -2.85645 5.41606 A 16.205 16.205 0 0 0 65.27845 115.82193 Z" stroke-linecap="round"/>
</g>
		<g transform="matrix(1 0 0 1 12.304 -3.4762)" id="Layer_1">
<path style="stroke: none; stroke-width: 1; stroke-dasharray: none; stroke-linecap: butt; stroke-dashoffset: 0; stroke-linejoin: miter; stroke-miterlimit: 4; is-custom-font: none; font-file-url: none; fill: rgb(254,253,253); fill-rule: nonzero; opacity: 1;" transform=" translate(-91.1678, -110.6574)" d="M 91.13709 114.71758 c -0.10431 -0.46516 -0.20631 -0.92828 -0.31218 -1.39051 a 14.71889 14.71889 0 0 0 -1.1768 -3.33 a 3.30341 3.30341 0 0 1 0.2608 -3.30957 c 0.062 -0.10725 0.1244 -0.115 0.21942 -0.04375 a 8.862 8.862 0 0 1 2.526 2.64817 a 2.417 2.417 0 0 1 0.13038 2.29356 a 24.39759 24.39759 0 0 1 -1.48691 2.95664 C 91.25857 114.60564 91.23759 114.68578 91.13709 114.71758 Z" stroke-linecap="round"/>
</g>
		<g transform="matrix(1 0 0 1 -12.2423 6.0103)" id="Layer_1">
<path style="stroke: none; stroke-width: 1; stroke-dasharray: none; stroke-linecap: butt; stroke-dashoffset: 0; stroke-linejoin: miter; stroke-miterlimit: 4; is-custom-font: none; font-file-url: none; fill: rgb(254,253,253); fill-rule: nonzero; opacity: 1;" transform=" translate(-66.6216, -120.1439)" d="M 64.5 117.24971 a 10.18611 10.18611 0 0 0 1.27869 0.85984 a 2.7901 2.7901 0 0 0 0.54939 0.2312 a 2.48362 2.48362 0 0 1 1.29831 0.90932 a 5.56512 5.56512 0 0 1 1.10974 3.62589 c -0.00174 0.13252 -0.05522 0.17473 -0.18379 0.159 a 7.62567 7.62567 0 0 1 -2.83383 -0.82 a 1.3772 1.3772 0 0 1 -0.74444 -1.28579 A 15.11671 15.11671 0 0 0 64.5 117.24971 Z" stroke-linecap="round"/>
</g>
		<g transform="matrix(1 0 0 1 -1.237 -0.0781)" id="Layer_1">
<path style="stroke: none; stroke-width: 1; stroke-dasharray: none; stroke-linecap: butt; stroke-dashoffset: 0; stroke-linejoin: miter; stroke-miterlimit: 4; is-custom-font: none; font-file-url: none; fill: rgb(254,253,253); fill-rule: nonzero; opacity: 1;" transform=" translate(-77.6268, -114.0556)" d="M 79.10325 114.09193 a 1.47672 1.47672 0 1 1 -1.47589 -1.5131 A 1.49418 1.49418 0 0 1 79.10325 114.09193 Z" stroke-linecap="round"/>
</g>
		<g transform="matrix(1 0 0 1 -6.3314 -13.1374)" id="Layer_1">
<path style="stroke: none; stroke-width: 1; stroke-dasharray: none; stroke-linecap: butt; stroke-dashoffset: 0; stroke-linejoin: miter; stroke-miterlimit: 4; is-custom-font: none; font-file-url: none; fill: rgb(254,253,253); fill-rule: nonzero; opacity: 1;" transform=" translate(-72.5324, -100.9962)" d="M 70.12845 102.55065 a 16.587 16.587 0 0 1 1.10729 -2.33059 c 0.11187 -0.1922 0.23122 -0.3801 0.34962 -0.56841 a 0.38248 0.38248 0 0 1 0.33684 -0.20782 a 5.63449 5.63449 0 0 1 2.20625 0.38468 a 1.54234 1.54234 0 0 1 0.76055 0.60809 c 0.05471 0.09328 0.09495 0.16139 -0.07385 0.16809 a 7.59424 7.59424 0 0 0 -3.84911 1.381 C 70.68339 102.1687 70.40746 102.36206 70.12845 102.55065 Z" stroke-linecap="round"/>
</g>
		<g transform="matrix(1 0 0 1 13.6065 3.5964)" id="Layer_1">
<path style="stroke: none; stroke-width: 1; stroke-dasharray: none; stroke-linecap: butt; stroke-dashoffset: 0; stroke-linejoin: miter; stroke-miterlimit: 4; is-custom-font: none; font-file-url: none; fill: rgb(254,253,253); fill-rule: nonzero; opacity: 1;" transform=" translate(-92.4703, -117.73)" d="M 91.46917 120.05752 a 24.59223 24.59223 0 0 1 0.77693 -4.655 a 3.70922 3.70922 0 0 1 1.216 2.17446 a 1.01116 1.01116 0 0 1 -0.17658 0.72188 A 9.8711 9.8711 0 0 1 91.46917 120.05752 Z" stroke-linecap="round"/>
</g>
		<g transform="matrix(1 0 0 1 -8.6876 9.5794)" id="Layer_1">
<path style="stroke: none; stroke-width: 1; stroke-dasharray: none; stroke-linecap: butt; stroke-dashoffset: 0; stroke-linejoin: miter; stroke-miterlimit: 4; is-custom-font: none; font-file-url: none; fill: rgb(254,253,253); fill-rule: nonzero; opacity: 1;" transform=" translate(-70.1763, -123.713)" d="M 70.16181 123.74608 c -0.00213 -0.02049 -0.01335 -0.05245 -0.00469 -0.0593 c 0.02488 -0.0197 0.03338 0.00761 0.04163 0.02654 Z" stroke-linecap="round"/>
</g>
</g>
</g>
</svg>