<?xml version="1.0" encoding="utf-8"?>
<!-- Generator: Adobe Illustrator 23.0.5, SVG Export Plug-In . SVG Version: 6.00 Build 0)  -->
<svg version="1.1" id="Layer_1" xmlns="http://www.w3.org/2000/svg" xmlns:xlink="http://www.w3.org/1999/xlink" x="0px" y="0px"
	 viewBox="0 0 181.4 79.1" style="enable-background:new 0 0 181.4 79.1;" xml:space="preserve">
<style type="text/css">
	.st0{fill:#FFFFFF;}
	.st1{enable-background:new    ;}
</style>
<g>
	<title>Logo White</title>
	<path class="st0" d="M68.2,46.4v1.4c-0.1,0-0.1,0.1-0.1,0.1c-0.2,0.9-0.7,1.8-1.4,2.4c-1.8,1.7-3.5,3.4-5.1,5.3
		c-0.5,0.6-1.2,1.1-1.9,1.4c-1.2,0.5-2.5,0.8-3.8,0.8c-0.4,0-0.6,0.2-0.6,0.6c0,0.3,0,0.6-0.1,0.9c-0.3,2.2-1.3,4.3-2.9,5.8
		c-2.5,2.3-5.3,4.2-8.4,5.6c-2.2,1.1-4.7,1.6-7.1,1.4c-1.2-0.1-2.4-0.4-3.6-1c-1.7-0.8-3.4-1.6-5.2-2.4c-2.2-0.9-4.4-2.1-6.5-3.4
		c-1.8-1-3.1-2.6-3.9-4.5c-0.2-0.6-0.8-1.1-1.5-1.1c-0.5,0-1.1-0.1-1.6-0.1C12,59.2,9.7,57.8,8,55.8c-0.9-1-1.5-2.4-1.5-3.8
		c0-1.8-0.1-3.6-0.1-5.4c0-2.2-0.3-4.4-1-6.4c-0.1-0.4-0.2-0.7-0.2-1.1c-0.1-2.5,0-5,0.2-7.4c0.1-1.6,0.3-3.2,0.6-4.8
		c0.1-0.3,0.2-0.6,0.5-0.9c2.8-2.8,6-5.2,9.4-7.2c0.3-0.2,0.6-0.5,0.6-0.9c0.6-3.3,2-6.4,4.2-9c0.2-0.3,0.5-0.4,0.9-0.4
		c1,0,2.1,0.1,3.1,0.2c2,0.1,4,0.7,5.8,1.5c0.2,0.1,0.5,0.1,0.6-0.1c0.7-0.5,1.5-1,2.4-1.3c2.1-0.9,4.4-1.4,6.7-1.5l2.7,0
		c0.1,0,0.2,0,0.4,0c0.6-0.1,1.1,0.2,1.3,0.8c0.5,0.9,1.1,1.8,1.7,2.6c1,1.5,2.3,2.7,3.9,3.5c0.5,0.2,1,0.5,1.5,0.9
		c1.6,1.2,3,2.7,4.1,4.3c1.1,1.6,2.6,3,4.3,3.9c1.1,0.5,2.1,1.2,3,1.9c1.7,1.1,3,2.8,3.6,4.8c0.6,1.7,0.4,3.6-0.5,5.2
		c-0.6,1.1-1.1,2.2-1.3,3.4c-0.3,0.9-0.1,1.8,0.5,2.5c1.2,1.5,2.1,3.3,2.6,5.2C68.1,46.3,68.1,46.4,68.2,46.4z M19.7,58.5
		C19.7,58.5,19.7,58.4,19.7,58.5C19.6,58.5,19.7,58.6,19.7,58.5c1.2,3.4,3.6,6.2,6.8,7.9c4.3,2.3,9.1,3.4,14,3.2
		c0.2,0,0.4-0.1,0.5-0.1c1.6-0.8,3.2-1.7,4.7-2.7c2.5-1.6,4.5-3.8,6.1-6.3c0.1-0.2,0.2-0.3,0.2-0.5c-0.2,0-0.3,0.2-0.4,0.3
		c-1.5,1.3-3.1,2.5-4.9,3.6c-2,1.2-4.3,1.8-6.6,1.9c-2.3,0.1-4.4-0.8-6.1-2.3c-0.2-0.2-0.6-0.3-0.9-0.3c-1.4,0.2-2.8,0.3-4.2,0.3
		c-2.2-0.1-4.4-0.8-6.1-2.2C21.7,60.3,20.7,59.4,19.7,58.5z M24.5,46c-0.1,0.1-0.1,0.3-0.1,0.5c0,0.9,0.1,1.9,0.3,2.8
		c0.3,2,1.2,3.8,2.6,5.3c1.7,1.8,4.1,2.7,6.6,2.6c2.4,0,4.7-0.5,6.9-1.3c6.5-2.5,10.1-7.3,10.6-14.2c0.5-5.3-1.9-9.7-5.6-13.4
		c-0.7-0.7-1.6-1.1-2.5-1.1c-0.1,0-0.3,0-0.4,0.1c-0.1,0.1,0.1,0.3,0.2,0.4c1.3,1.9,2.2,4.1,2.9,6.3c0.9,2.8,1,5.8,0.2,8.7
		c-1.7,5.2-6.6,8.8-12.1,8.8c-2.3,0.1-4.5-0.5-6.5-1.7C26.2,48.7,25.2,47.5,24.5,46L24.5,46z M50.5,29.5c0.9,0.9,1.6,2.1,2,3.3
		c0.9,2.7,1.3,5.5,1.4,8.3c0.2,2-0.2,4-0.9,5.8c-2,4.3-5.1,7.9-8.9,10.6c-1.3,1-2.8,1.5-4.4,1.5c-1.6,0-3,0.7-4.1,1.8
		c-0.3,0.3-0.2,0.4,0.1,0.6c1.4,0.6,2.9,1.1,4.4,1.4c1.4,0.4,3-0.1,3.9-1.2c0.4-0.4,0.7-0.7,1.1-1c2.2-1.7,4.6-3,7.1-4
		c1.8-0.7,3.4-1.8,4.8-3.2c1.5-1.6,2.3-3.7,2.3-5.9c-0.1-1-0.3-2-0.6-2.9c-0.6-2.7-1.2-5.5-1.8-8.2c-0.4-2.1-1.3-4-2.6-5.6
		C53.3,29.8,51.9,29.3,50.5,29.5L50.5,29.5z M28.3,38.8c0.3-0.6,0.5-1.1,0.7-1.7c0.6-1.5,1.9-2.6,3.4-3c2-0.6,4.2,0.1,5.6,1.7
		c0.9,0.9,1.5,2.1,1.5,3.3c-0.1,1.7-0.8,3.4-2,4.6c-0.2,0.2-0.5,0.3-0.9,0.3c-0.8,0.1-1.7,0.2-2.5,0.4c-1.8,0.4-3.6,1-5.3,1.9
		c-0.3,0.2-0.3,0.3-0.1,0.5c0.4,0.4,0.9,0.7,1.4,1c2.7,2,6.4,2,9-0.2c2.1-1.6,3.8-3.6,4.9-6c0.3-0.6,0.5-1.2,0.5-1.9
		c0.1-1.7-0.2-3.4-1-5c-1-2.5-3.1-4.3-5.7-5C35.5,29.3,33,29.7,31,31c-1.9,1-3.2,2.9-3.2,5C27.7,36.9,27.9,37.9,28.3,38.8L28.3,38.8
		z M20.8,27.4c-1.3,0.2-2.5,0.8-3.4,1.8c-3.7,3.5-5.6,8.6-5,13.6c0.1,0.6,0.3,1.2,0.7,1.6c1.4,1.7,2.8,3.4,4,5.3
		c1.2,1.8,2.2,3.7,3.5,5.4c1.4,2.1,3.3,3.7,5.5,4.9c1.9,1,4.1,1,6,0.1c0.1-0.1,0.3-0.1,0.4-0.3c-0.5-0.1-0.9-0.2-1.3-0.3
		c-3.2-0.7-6-2.7-7.7-5.5c-1.5-2.7-2.2-5.8-1.9-8.9c0.1-0.4-0.1-0.9-0.5-1.1c-1.9-1.2-3.1-3.1-3.3-5.3c-0.2-1.9,0-3.9,0.6-5.7
		C18.8,31,19.7,29.1,20.8,27.4L20.8,27.4z M49.6,27C49.6,27,49.6,27,49.6,27c0.2,0,0.3,0.1,0.4,0.1c1.8,0,3.5,0.5,5.1,1.4
		c0.8,0.5,0.8,0.5,0.9-0.4c0.2-1.9-0.1-3.8-0.8-5.5c-1-2-2.6-3.6-4.6-4.6c-3-1.6-5.5-4.1-7.2-7.1c-0.2-0.5-0.7-0.7-1.2-0.7
		c-0.9,0-1.7,0-2.6,0c-1.7,0-3.3,0.3-4.8,1c-1.2,0.4-2.1,1.4-2.4,2.6c-0.1,0.3,0,0.7,0.3,0.9c1.9,1.1,3.9,2,5.9,2.6
		c1.7,0.4,3.5,0.7,5.2,1.3c1.6,0.5,3.2,1.2,4.6,2.2c1.4,1,2.2,2.7,2,4.4C50.1,25.6,49.9,26.3,49.6,27L49.6,27z M19.5,24.4
		c1,0,2.1,0,3.1,0c1,0,1.9-0.2,2.7-0.7c1.9-1.1,4-1.7,6.1-1.8c2.9-0.2,5.8,0.7,8.1,2.4c0.3,0.2,0.6,0.3,0.9,0.3
		c1.2-0.1,2.3-0.1,3.5,0.1c0.9,0.1,1.8,0.4,2.5,1.1c0.2,0.2,0.3,0.5,0.5,0.5c0.2,0,0.3-0.4,0.5-0.5c0.7-0.6,0.7-1.6,0.1-2.3
		c0,0,0,0-0.1-0.1c-0.3-0.3-0.6-0.6-0.9-0.8c-1.8-1.1-3.7-1.9-5.8-2.2c-2.5-0.3-4.9-1.3-7-2.7c-0.5-0.4-1.1-0.6-1.7-0.9
		c-3-1.4-6.7-0.7-8.9,1.9c-1.3,1.4-2.4,3-3.3,4.7C19.8,23.6,19.6,24,19.5,24.4L19.5,24.4z M28.6,43.6c-0.4-0.4-0.8-0.7-1.2-1.1
		c-1.6-1.6-2.5-3.8-2.5-6c0.1-2.1,0.7-4.1,1.9-5.8c1.3-2.2,3.6-3.7,6.2-3.9c2.1-0.1,4.2,0.2,6.1,1.1c0.1,0,0.2,0.2,0.4,0.1
		c-0.1-0.2-0.2-0.3-0.3-0.4c-0.9-0.8-1.9-1.5-3-2.1c-2.5-1.4-5.5-1.6-8.2-0.3c-3.9,1.8-6.8,5.1-8.2,9.2c-0.5,1.2-0.5,2.4-0.2,3.6
		c0.7,3,3.2,5.3,6.2,5.8C26.7,44,27.7,44,28.6,43.6L28.6,43.6z M10.1,43.1c0-0.1,0-0.3,0-0.4c-0.1-1.7,0-3.4,0.3-5.1
		C11,33.5,13,29.7,16,26.9c0.4-0.3,0.7-0.9,0.7-1.4c0-1.4,0.3-2.7,0.9-4c0-0.1,0.1-0.2,0-0.2c-0.1-0.1-0.2,0-0.3,0
		c-0.5,0.2-1,0.4-1.5,0.7c-2.1,1.4-4.1,2.8-6.1,4.5C9,27.1,8.5,28,8.3,29c-0.1,0.3-0.1,0.6-0.2,0.8c-0.6,2.8-0.5,5.6,0.2,8.4
		C8.7,39.9,9.3,41.5,10.1,43.1z M60.8,41c0.1-0.2,0.2-0.3,0.3-0.5c1.1-1.8,2-3.7,2.9-5.7c0.7-1.5,0.6-3.3-0.3-4.8
		c-1.3-2-2.9-3.7-4.8-5c-0.2-0.1-0.3-0.2-0.4,0.1c-1.2,2.1-1.6,4.3-0.5,6.5c1,1.9,1.7,3.9,2.2,6C60.3,38.8,60.5,39.8,60.8,41
		L60.8,41z M8.6,45.9c0,0.1,0,0.2,0,0.3c0.6,2.2,0.9,4.5,0.9,6.8c-0.1,1.1,0.6,2.2,1.6,2.6c1.7,0.8,3.5,1.4,5.4,1.5
		c0.3,0,0.4,0,0.4-0.3c0.1-2.5-0.6-4.9-2.1-7c-0.6-0.9-1.5-1.5-2.4-1.8c-0.7-0.2-1.4-0.5-2-1C9.8,46.7,9.2,46.3,8.6,45.9L8.6,45.9z
		 M37.2,39.6c0-1.6-1.3-2.9-2.9-2.9c-1.6,0-2.9,1.3-2.9,2.9c0,1.6,1.3,2.9,2.9,2.9C35.9,42.5,37.2,41.2,37.2,39.6L37.2,39.6z
		 M19.6,17.1c0.5-0.4,1.1-0.7,1.6-1.1c2.2-1.6,4.9-2.5,7.6-2.7c0.3,0,0.2-0.1,0.1-0.3c-0.4-0.6-0.9-1-1.5-1.2
		c-1.4-0.5-2.8-0.8-4.3-0.8c-0.2,0-0.5,0.1-0.6,0.3C21.3,13.1,20.4,15.1,19.6,17.1L19.6,17.1z M61.3,51.4c0.1,0,0.1,0,0.2-0.1
		c1.2-1,2.3-2.1,3.3-3.2c0.4-0.4,0.5-1,0.5-1.6c-0.2-1.7-1.2-3-2.4-4.2C62.1,45.2,61.6,48.3,61.3,51.4L61.3,51.4z"/>
	<path class="st0" d="M43,7.2C43,7.2,43,7.3,43,7.2l-2.7,0.1c0,0,0,0,0-0.1H43z"/>
	<path class="st0" d="M19.7,58.6c0,0,0-0.1,0-0.1C19.7,58.4,19.7,58.5,19.7,58.6L19.7,58.6z"/>
	<g class="st1">
		<path class="st0" d="M95.4,13.8v13.7h-3.3v-8.2L89,27.5h-2.7l-3.1-8.2v8.2h-3.3V13.8h3.9l3.8,9.5l3.8-9.5H95.4z"/>
		<path class="st0" d="M99.9,26.9c-0.9-0.5-1.5-1.1-2-2c-0.5-0.8-0.7-1.8-0.7-3c0-1.1,0.2-2.1,0.7-3c0.5-0.9,1.2-1.5,2-2
			c0.9-0.5,1.8-0.7,2.9-0.7s2,0.2,2.9,0.7c0.9,0.5,1.5,1.1,2,2c0.5,0.9,0.7,1.8,0.7,3s-0.3,2.1-0.8,3c-0.5,0.9-1.2,1.5-2,2
			s-1.8,0.7-2.9,0.7S100.8,27.4,99.9,26.9z M104.4,24c0.4-0.5,0.7-1.1,0.7-2c0-0.9-0.2-1.5-0.7-2c-0.4-0.5-1-0.7-1.6-0.7
			c-0.7,0-1.2,0.2-1.6,0.7c-0.4,0.5-0.6,1.1-0.6,2c0,0.9,0.2,1.5,0.6,2c0.4,0.5,1,0.7,1.6,0.7S104,24.5,104.4,24z"/>
		<path class="st0" d="M112.3,26.9c-0.9-0.5-1.5-1.1-2-2c-0.5-0.8-0.7-1.8-0.7-3c0-1.1,0.2-2.1,0.7-3c0.5-0.9,1.2-1.5,2-2
			c0.9-0.5,1.8-0.7,2.9-0.7s2,0.2,2.9,0.7c0.9,0.5,1.5,1.1,2,2c0.5,0.9,0.7,1.8,0.7,3s-0.3,2.1-0.8,3c-0.5,0.9-1.2,1.5-2,2
			s-1.8,0.7-2.9,0.7S113.2,27.4,112.3,26.9z M116.8,24c0.4-0.5,0.7-1.1,0.7-2c0-0.9-0.2-1.5-0.7-2c-0.4-0.5-1-0.7-1.6-0.7
			c-0.7,0-1.2,0.2-1.6,0.7c-0.4,0.5-0.6,1.1-0.6,2c0,0.9,0.2,1.5,0.6,2c0.4,0.5,1,0.7,1.6,0.7S116.4,24.5,116.8,24z"/>
		<path class="st0" d="M132.4,17.7c0.8,0.8,1.1,2,1.1,3.4v6.4h-3.3v-5.9c0-0.7-0.2-1.3-0.6-1.7c-0.4-0.4-0.9-0.6-1.5-0.6
			s-1.1,0.2-1.5,0.6c-0.4,0.4-0.6,1-0.6,1.7v5.9h-3.3V16.6h3.3V18c0.3-0.5,0.8-0.9,1.4-1.1c0.6-0.3,1.2-0.4,1.9-0.4
			C130.6,16.4,131.6,16.9,132.4,17.7z"/>
		<path class="st0" d="M137.7,27.1c-0.7-0.3-1.3-0.8-1.8-1.3s-0.7-1.2-0.7-1.9h3.3c0,0.4,0.2,0.7,0.5,0.9c0.3,0.2,0.7,0.4,1.2,0.4
			c0.4,0,0.7-0.1,1-0.2c0.2-0.2,0.3-0.4,0.3-0.6c0-0.3-0.2-0.5-0.5-0.7s-0.9-0.3-1.6-0.5c-0.8-0.2-1.4-0.4-2-0.6
			c-0.5-0.2-1-0.5-1.3-1c-0.4-0.4-0.6-1-0.6-1.8c0-0.6,0.2-1.2,0.5-1.7s0.9-0.9,1.5-1.2s1.5-0.4,2.4-0.4c1.4,0,2.4,0.3,3.2,1
			c0.8,0.7,1.2,1.6,1.4,2.7h-3.1c-0.1-0.4-0.2-0.7-0.5-0.9c-0.3-0.2-0.6-0.3-1.1-0.3c-0.4,0-0.7,0.1-0.9,0.2
			c-0.2,0.1-0.3,0.4-0.3,0.6c0,0.3,0.2,0.5,0.5,0.7c0.3,0.2,0.8,0.3,1.6,0.5c0.8,0.2,1.5,0.4,2,0.6c0.5,0.2,1,0.5,1.3,1
			c0.4,0.4,0.6,1.1,0.6,1.8c0,0.6-0.2,1.2-0.5,1.7c-0.4,0.5-0.9,0.9-1.5,1.2s-1.4,0.4-2.3,0.4C139.3,27.6,138.5,27.4,137.7,27.1z"/>
		<path class="st0" d="M152.8,24.6v2.8h-1.7c-1.2,0-2.2-0.3-2.8-0.9c-0.7-0.6-1-1.6-1-2.9v-4.3h-1.3v-2.8h1.3v-2.7h3.3v2.7h2.2v2.8
			h-2.2v4.4c0,0.3,0.1,0.6,0.2,0.7s0.4,0.2,0.8,0.2H152.8z"/>
		<path class="st0" d="M154.6,19c0.4-0.8,1-1.5,1.7-2s1.5-0.7,2.4-0.7c0.8,0,1.4,0.2,2,0.5s1,0.7,1.3,1.2v-1.5h3.3v10.9h-3.3v-1.5
			c-0.3,0.5-0.8,0.9-1.4,1.2c-0.6,0.3-1.3,0.5-2,0.5c-0.9,0-1.7-0.2-2.4-0.7s-1.3-1.1-1.7-2c-0.4-0.9-0.6-1.8-0.6-3
			S154.2,19.9,154.6,19z M161.5,20c-0.5-0.5-1-0.7-1.7-0.7c-0.7,0-1.2,0.2-1.7,0.7c-0.5,0.5-0.7,1.1-0.7,2c0,0.8,0.2,1.5,0.7,2
			c0.5,0.5,1,0.7,1.7,0.7c0.7,0,1.2-0.2,1.7-0.7c0.5-0.5,0.7-1.1,0.7-2S161.9,20.5,161.5,20z"/>
		<path class="st0" d="M172.7,17c0.6-0.3,1.2-0.5,2-0.5V20h-0.9c-0.8,0-1.5,0.2-1.9,0.5c-0.4,0.4-0.6,1-0.6,1.9v5.1h-3.3V16.6h3.3
			v1.8C171.6,17.8,172.1,17.3,172.7,17z"/>
	</g>
	<g class="st1">
		<path class="st0" d="M88.4,44.6h-5.1L82.5,47H79l5-13.7h3.9l5,13.7h-3.5L88.4,44.6z M87.6,42l-1.7-5l-1.7,5H87.6z"/>
		<path class="st0" d="M94.3,38.6c0.4-0.8,1-1.5,1.7-2s1.5-0.7,2.4-0.7c0.7,0,1.4,0.1,2,0.4c0.6,0.3,1.1,0.7,1.4,1.2v-5.1h3.3V47
			h-3.3v-1.6c-0.3,0.5-0.8,0.9-1.3,1.2s-1.3,0.5-2,0.5c-0.9,0-1.7-0.2-2.4-0.7s-1.3-1.1-1.7-2c-0.4-0.9-0.6-1.8-0.6-3
			C93.6,40.4,93.8,39.4,94.3,38.6z M101.1,39.6c-0.5-0.5-1-0.7-1.7-0.7c-0.7,0-1.2,0.2-1.7,0.7c-0.5,0.5-0.7,1.1-0.7,2
			c0,0.8,0.2,1.5,0.7,2s1,0.7,1.7,0.7c0.7,0,1.2-0.2,1.7-0.7s0.7-1.1,0.7-2C101.8,40.7,101.6,40,101.1,39.6z"/>
		<path class="st0" d="M124.7,37.2c0.8,0.8,1.2,2,1.2,3.4V47h-3.3v-5.9c0-0.7-0.2-1.2-0.6-1.6c-0.4-0.4-0.9-0.6-1.5-0.6
			s-1.2,0.2-1.5,0.6c-0.4,0.4-0.6,0.9-0.6,1.6V47h-3.3v-5.9c0-0.7-0.2-1.2-0.6-1.6c-0.4-0.4-0.9-0.6-1.5-0.6c-0.7,0-1.2,0.2-1.5,0.6
			c-0.4,0.4-0.6,0.9-0.6,1.6V47h-3.3V36.1h3.3v1.4c0.3-0.5,0.8-0.8,1.3-1.1c0.5-0.3,1.2-0.4,1.9-0.4c0.8,0,1.6,0.2,2.2,0.5
			c0.6,0.4,1.1,0.9,1.5,1.5c0.4-0.6,0.9-1.1,1.5-1.5s1.4-0.6,2.1-0.6C122.8,36,123.9,36.4,124.7,37.2z"/>
		<path class="st0" d="M128.2,38.6c0.4-0.8,1-1.5,1.7-2s1.5-0.7,2.4-0.7c0.8,0,1.4,0.2,2,0.5s1,0.7,1.3,1.2v-1.5h3.3V47h-3.3v-1.5
			c-0.3,0.5-0.8,0.9-1.4,1.2s-1.3,0.5-2,0.5c-0.9,0-1.7-0.2-2.4-0.7s-1.3-1.1-1.7-2c-0.4-0.9-0.6-1.8-0.6-3
			C127.6,40.4,127.8,39.4,128.2,38.6z M135,39.6c-0.5-0.5-1-0.7-1.7-0.7c-0.7,0-1.2,0.2-1.7,0.7c-0.5,0.5-0.7,1.1-0.7,2
			c0,0.8,0.2,1.5,0.7,2s1,0.7,1.7,0.7c0.7,0,1.2-0.2,1.7-0.7s0.7-1.1,0.7-2C135.7,40.7,135.5,40,135,39.6z"/>
		<path class="st0" d="M151.2,37.2c0.8,0.8,1.1,2,1.1,3.4V47H149v-5.9c0-0.7-0.2-1.3-0.6-1.7c-0.4-0.4-0.9-0.6-1.5-0.6
			s-1.1,0.2-1.5,0.6c-0.4,0.4-0.6,1-0.6,1.7V47h-3.3V36.1h3.3v1.4c0.3-0.5,0.8-0.9,1.4-1.1c0.6-0.3,1.2-0.4,1.9-0.4
			C149.4,36,150.4,36.4,151.2,37.2z"/>
		<path class="st0" d="M154.9,34.4c-0.4-0.3-0.6-0.8-0.6-1.3c0-0.5,0.2-1,0.6-1.3s0.8-0.5,1.4-0.5c0.6,0,1,0.2,1.4,0.5
			c0.4,0.3,0.6,0.8,0.6,1.3c0,0.5-0.2,0.9-0.6,1.3c-0.4,0.3-0.8,0.5-1.4,0.5C155.7,34.9,155.2,34.8,154.9,34.4z M158,36.1V47h-3.3
			V36.1H158z"/>
	</g>
	<g class="st1">
		<path class="st0" d="M89,56.2c-0.2-0.5-0.6-0.8-1.1-1c-0.5-0.2-1-0.4-1.6-0.4c-1.1,0-1.9,0.4-2.6,1.1c-0.7,0.7-1,1.7-1,2.8
			c0,1.3,0.3,2.2,1,3c0.7,0.7,1.6,1.1,2.8,1.1c0.8,0,1.5-0.2,2.1-0.6c0.6-0.4,1-1,1.2-1.8h-4.2v-2.5h7.3V61
			c-0.2,0.8-0.7,1.6-1.3,2.3c-0.6,0.7-1.3,1.3-2.3,1.7c-0.9,0.4-1.9,0.7-3.1,0.7c-1.4,0-2.6-0.3-3.6-0.9c-1.1-0.6-1.9-1.4-2.5-2.5
			s-0.9-2.3-0.9-3.6c0-1.4,0.3-2.6,0.9-3.6c0.6-1.1,1.4-1.9,2.5-2.5s2.3-0.9,3.6-0.9c1.6,0,3,0.4,4.1,1.2c1.1,0.8,1.9,1.9,2.2,3.3
			H89z"/>
		<path class="st0" d="M99.6,55.1c0.6-0.3,1.2-0.5,2-0.5v3.5h-0.9c-0.8,0-1.5,0.2-1.9,0.5c-0.4,0.4-0.6,1-0.6,1.9v5.1h-3.3V54.7h3.3
			v1.8C98.5,55.9,99,55.5,99.6,55.1z"/>
		<path class="st0" d="M105.2,65.1c-0.9-0.5-1.5-1.1-2-2c-0.5-0.8-0.7-1.8-0.7-3c0-1.1,0.2-2.1,0.7-3c0.5-0.9,1.2-1.5,2-2
			c0.9-0.5,1.8-0.7,2.9-0.7s2,0.2,2.9,0.7c0.9,0.5,1.5,1.1,2,2c0.5,0.9,0.7,1.8,0.7,3c0,1.1-0.3,2.1-0.8,3c-0.5,0.9-1.2,1.5-2,2
			c-0.9,0.5-1.8,0.7-2.9,0.7S106.1,65.5,105.2,65.1z M109.7,62.2c0.4-0.5,0.7-1.1,0.7-2c0-0.9-0.2-1.5-0.7-2c-0.4-0.5-1-0.7-1.6-0.7
			c-0.7,0-1.2,0.2-1.6,0.7s-0.6,1.1-0.6,2c0,0.9,0.2,1.5,0.6,2s1,0.7,1.6,0.7S109.3,62.6,109.7,62.2z"/>
		<path class="st0" d="M126.3,54.7v10.9H123v-1.5c-0.3,0.5-0.8,0.9-1.4,1.2c-0.6,0.3-1.2,0.4-1.9,0.4c-0.8,0-1.6-0.2-2.2-0.6
			s-1.1-0.9-1.5-1.6c-0.4-0.7-0.5-1.5-0.5-2.5v-6.4h3.3v5.9c0,0.7,0.2,1.3,0.6,1.7c0.4,0.4,0.9,0.6,1.5,0.6c0.7,0,1.2-0.2,1.5-0.6
			c0.4-0.4,0.6-1,0.6-1.7v-5.9H126.3z"/>
		<path class="st0" d="M133.4,55c0.6-0.3,1.2-0.5,2-0.5c0.9,0,1.7,0.2,2.4,0.7c0.7,0.5,1.3,1.1,1.7,2c0.4,0.8,0.6,1.8,0.6,2.9
			c0,1.1-0.2,2.1-0.6,3c-0.4,0.9-1,1.5-1.7,2c-0.7,0.5-1.5,0.7-2.4,0.7c-0.8,0-1.4-0.2-2-0.5s-1-0.7-1.4-1.2v6.7h-3.3V54.7h3.3v1.5
			C132.4,55.7,132.8,55.3,133.4,55z M136.1,58.2c-0.5-0.5-1-0.7-1.7-0.7c-0.7,0-1.2,0.2-1.7,0.7s-0.7,1.1-0.7,2c0,0.8,0.2,1.5,0.7,2
			s1,0.7,1.7,0.7c0.7,0,1.2-0.2,1.7-0.7c0.5-0.5,0.7-1.1,0.7-2C136.8,59.3,136.6,58.7,136.1,58.2z"/>
	</g>
</g>
</svg>
